<?xml version="1.0" standalone="no"?>
<!DOCTYPE svg PUBLIC "-//W3C//DTD SVG 20010904//EN" "http://www.w3.org/TR/2001/REC-SVG-20010904/DTD/svg10.dtd">
<!-- Created using Karbon, part of Calligra: http://www.calligra.org/karbon -->
<svg xmlns="http://www.w3.org/2000/svg" xmlns:xlink="http://www.w3.org/1999/xlink" width="550pt" height="841pt">
<defs/>
<g id="Add">
  <g id="group0" transform="translate(-13.4277, -20.5322)" fill="none">
   <path id="shape0" transform="matrix(21.4844 0 0 32.8516 13.4277 20.5322)" fill="#ffffff" fill-rule="evenodd" d="M21 14L18 14L18 11C18 9.896 17.104 9 16 9C14.896 9 14 9.895 14 11L14 14L11 14C9.896 14 9 14.895 9 16C9 17.104 9.896 18 11 18L14 18L14 21C14 22.104 14.896 23 16 23C17.104 23 18 22.105 18 21L18 18L21 18C22.104 18 23 17.104 23 16C23 14.896 22.104 14 21 14ZM16 0C7.163 0 0 7.163 0 16C0 24.837 7.163 32 16 32C24.837 32 32 24.837 32 16C32 7.163 24.837 0 16 0ZM16 29C8.832 29 3 23.168 3 16C3 8.832 8.832 3 16 3C23.168 3 29 8.832 29 16C29 23.168 23.168 29 16 29Z"/>
  </g>
 </g><g id="layer0"/><g id="layer1"/><g id="layer2"/><g id="layer3"/><g id="layer4"/><g id="layer5"/><g id="layer6"/><g id="layer7"/><g id="layer8"/><g id="layer9"/><g id="layer10"/><g id="layer11"/><g id="layer12"/><g id="layer13"/><g id="layer14"/>
</svg>
