<?xml version="1.0" standalone="no"?>
<!DOCTYPE svg PUBLIC "-//W3C//DTD SVG 20010904//EN" "http://www.w3.org/TR/2001/REC-SVG-20010904/DTD/svg10.dtd">
<!-- Created using Karbon, part of Calligra: http://www.calligra.org/karbon -->
<svg xmlns="http://www.w3.org/2000/svg" xmlns:xlink="http://www.w3.org/1999/xlink" width="12.9296pt" height="12.8128pt">
<defs/>
<g id="layer0">
  <path id="shape0" transform="matrix(1 0 0 1 -0.0155 8.53)" fill="#ffffff" d="M0.4395 4.925C-0.1465 5.511 -0.1465 6.46 0.4395 7.046C0.7325 7.339 1.1165 7.485 1.5005 7.485C1.8845 7.485 2.2685 7.339 2.5615 7.046L7.4865 2.121L5.3645 0Z"/>
  <path id="shape1" transform="matrix(1 0 0 1 9.062 0)" fill="#ffffff" d="M3.671 4.327L5.814 3.218L6.938 1.047L5.891 0L3.72 1.124L2.611 3.267L0 5.879L1.059 6.939Z"/>
  <path id="shape2" transform="matrix(1 0 0 1 -1.38778e-16 1.38778e-16)" fill="#ffffff" d="M13.202 10.02L13 10C12.634 10 12.287 10.075 11.963 10.195L5.805 4.037C5.925 3.713 6 3.366 6 3L5.98 2.798C5.874 1.237 4.588 0 3 0C2.538 0 2.105 0.113 1.714 0.3L3.707 2.293C3.812 2.398 3.884 2.522 3.932 2.653C4.063 3.007 3.992 3.421 3.707 3.707C3.512 3.902 3.256 4 3 4C2.882 4 2.765 3.974 2.653 3.932C2.522 3.882 2.398 3.812 2.293 3.706L0.3 1.714C0.113 2.105 0 2.538 0 3C0 4.588 1.237 5.874 2.798 5.98L3 6C3.366 6 3.713 5.925 4.037 5.806L10.194 11.963C10.075 12.287 10 12.634 10 13L10.021 13.202C10.126 14.763 11.412 16 13 16C13.462 16 13.896 15.888 14.286 15.7L12.293 13.707C12.189 13.603 12.116 13.478 12.067 13.348C11.936 12.993 12.007 12.579 12.293 12.293C12.487 12.098 12.744 12 13 12C13.118 12 13.235 12.026 13.347 12.068C13.478 12.117 13.603 12.188 13.707 12.293L15.7 14.286C15.888 13.895 16 13.462 16 13C16 11.412 14.763 10.126 13.202 10.02Z"/>
 </g>
</svg>
