<?xml version="1.0" standalone="no"?>
<!DOCTYPE svg PUBLIC "-//W3C//DTD SVG 20010904//EN" "http://www.w3.org/TR/2001/REC-SVG-20010904/DTD/svg10.dtd">
<!-- Created using Karbon, part of Calligra: http://www.calligra.org/karbon -->
<svg xmlns="http://www.w3.org/2000/svg" xmlns:xlink="http://www.w3.org/1999/xlink" width="17.272pt" height="16.9096pt">
<defs/>
<g id="layer0">
  <path id="shape0" transform="matrix(1 0 0 1 0 0)" fill="#ffffff" d="M18.622 8.145L18.077 6.85C18.077 6.85 19.345 3.989 19.233 3.879L17.554 2.24C17.438 2.127 14.576 3.433 14.576 3.433L13.256 2.9C13.256 2.9 12.09 0 11.93 0L9.561 0C9.396 0 8.317 2.906 8.317 2.906L6.999 3.441C6.999 3.441 4.077 2.199 3.965 2.31L2.289 3.951C2.173 4.064 3.507 6.867 3.507 6.867L2.962 8.16C2.962 8.16 0 9.301 0 9.455L0 11.777C0 11.939 2.969 12.996 2.969 12.996L3.514 14.287C3.514 14.287 2.246 17.146 2.357 17.256L4.035 18.899C4.149 19.01 7.012 17.704 7.012 17.704L8.333 18.239C8.333 18.239 9.499 21.137 9.66 21.137L12.029 21.137C12.193 21.137 13.273 18.231 13.273 18.231L14.595 17.696C14.595 17.696 17.511 18.938 17.624 18.829L19.302 17.188C19.419 17.073 18.082 14.272 18.082 14.272L18.626 12.979C18.626 12.979 21.589 11.836 21.589 11.68L21.589 9.36C21.59 9.199 18.622 8.145 18.622 8.145ZM14.256 10.568C14.256 12.435 12.703 13.955 10.795 13.955C8.889 13.955 7.334 12.435 7.334 10.568C7.334 8.701 8.889 7.183 10.795 7.183C12.704 7.184 14.256 8.701 14.256 10.568Z"/>
  <g id="group0" transform="" fill="none"/>
  <g id="group1" transform="" fill="none"/>
  <g id="group2" transform="" fill="none"/>
  <g id="group3" transform="" fill="none"/>
  <g id="group4" transform="" fill="none"/>
  <g id="group5" transform="" fill="none"/>
  <g id="group6" transform="" fill="none"/>
  <g id="group7" transform="" fill="none"/>
  <g id="group8" transform="" fill="none"/>
  <g id="group9" transform="" fill="none"/>
  <g id="group10" transform="" fill="none"/>
  <g id="group11" transform="" fill="none"/>
  <g id="group12" transform="" fill="none"/>
  <g id="group13" transform="" fill="none"/>
  <g id="group14" transform="" fill="none"/>
 </g>
</svg>
