<?xml version="1.0" standalone="no"?>
<!DOCTYPE svg PUBLIC "-//W3C//DTD SVG 20010904//EN" "http://www.w3.org/TR/2001/REC-SVG-20010904/DTD/svg10.dtd">
<!-- Created using Karbon, part of Calligra: http://www.calligra.org/karbon -->
<svg xmlns="http://www.w3.org/2000/svg" xmlns:xlink="http://www.w3.org/1999/xlink" width="32.0056pt" height="32.0056pt">
<defs/>
<g id="_x33_56._Play">
  <g id="group0" transform="translate(-0.589182, -0.58918)" fill="none">
   <path id="shape0" transform="matrix(1 0 0 1 0.684819 0.542104)" fill="#ffffff" d="M37.3235 10.0035C31.8015 0.437505 19.5685 -2.8405 10.0035 2.6835C0.437505 8.2055 -2.8405 20.4375 2.6835 30.0035C8.2055 39.5685 20.4375 42.8465 30.0035 37.3235C39.5685 31.8005 42.8475 19.5685 37.3235 10.0035ZM28.0035 33.8585C20.3515 38.2775 10.5655 35.6555 6.1475 28.0025C1.7285 20.3505 4.3515 10.5645 12.0035 6.1475C19.6555 1.7285 29.4415 4.3505 33.8595 12.0035C38.2775 19.6555 35.6555 29.4405 28.0035 33.8585ZM27.2035 19.1905L16.7305 13.0825C15.7765 12.5255 15.0065 12.9705 15.0115 14.0745L15.0655 26.1985C15.0705 27.3025 15.8495 27.7515 16.8065 27.1985L27.1995 21.1985C28.1555 20.6465 28.1575 19.7475 27.2035 19.1905Z"/>
  </g>
 </g><g id="layer0"/><g id="layer1"/><g id="layer2"/><g id="layer3"/><g id="layer4"/><g id="layer5"/><g id="layer6"/><g id="layer7"/><g id="layer8"/><g id="layer9"/><g id="layer10"/><g id="layer11"/><g id="layer12"/><g id="layer13"/><g id="layer14"/>
</svg>
